<svg width="235" height="89" viewBox="0 0 235 89" fill="none" xmlns="http://www.w3.org/2000/svg">
<g clip-path="url(#clip0_3314:5024)">
<path d="M68.7549 60.5C67.0947 63.3579 43.3203 77 40 77C36.6797 77 12.9053 63.3579 11.2451 60.5C9.58496 57.6421 9.58496 30.3579 11.2451 27.5C12.9053 24.6421 36.6797 11 40 11C43.3203 11 67.0947 24.6421 68.7549 27.5C70.415 30.3579 70.415 57.6421 68.7549 60.5V60.5Z" fill="#373E48" stroke="#373E48" stroke-width="0.444484"/>
<path d="M51.25 18.444V35.2889C51.25 37.6944 49.2912 39.6445 46.875 39.6445H40H33.125C30.7087 39.6445 28.75 37.6944 28.75 35.2889V16.0001C28.75 15.9853 28.7477 18.4599 28.7476 18.4452C25.8305 20.0386 22.7611 21.8125 20 23.5111V44V64.4889C22.7618 66.188 25.8323 67.9623 28.75 69.556V52.7111C28.75 50.3056 30.7087 48.3555 33.125 48.3555H46.875C49.2912 48.3555 51.25 50.3056 51.25 52.7111V71.9999C51.25 72.0147 51.2521 69.54 51.2525 69.5548C54.1695 67.9614 57.2389 66.1875 60 64.4889L59.9999 44V23.5111C57.2381 21.812 54.1677 20.0377 51.25 18.444Z" fill="white"/>
<path d="M88.657 26.1386C90.0482 24.2623 91.8251 23.3242 93.9876 23.3242C97.9408 23.3242 99.9449 26.067 100 31.5527V47H96.3636V31.7246C96.3636 29.9056 96.0675 28.6165 95.4752 27.8574C94.8967 27.0839 94.022 26.6972 92.8512 26.6972C91.9421 26.6972 91.1226 27.0123 90.3926 27.6425C89.6763 28.2728 89.0978 29.0963 88.657 30.1132V47H85V14H88.657V26.1386Z" fill="#373E48"/>
<path d="M105 33.9305C105 30.565 105.817 27.9055 107.452 25.9518C109.1 23.9839 111.272 23 113.968 23C116.663 23 118.828 23.9554 120.462 25.8663C122.111 27.7772 122.957 30.3797 123 33.6738V36.1123C123 39.4634 122.183 42.1159 120.548 44.0695C118.914 46.0232 116.735 47 114.011 47C111.315 47 109.151 46.0517 107.516 44.1551C105.896 42.2585 105.057 39.6916 105 36.4545V33.9305ZM108.806 36.1123C108.806 38.4937 109.272 40.369 110.204 41.738C111.151 43.0927 112.419 43.7701 114.011 43.7701C117.366 43.7701 119.093 41.3601 119.194 36.5401V33.9305C119.194 31.5633 118.72 29.6952 117.774 28.3262C116.828 26.943 115.559 26.2514 113.968 26.2514C112.405 26.2514 111.151 26.943 110.204 28.3262C109.272 29.6952 108.806 31.5561 108.806 33.9091V36.1123Z" fill="#373E48"/>
<path d="M127 33.9305C127 30.565 127.817 27.9055 129.452 25.9518C131.1 23.9839 133.272 23 135.968 23C138.663 23 140.828 23.9554 142.462 25.8663C144.111 27.7772 144.957 30.3797 145 33.6738V36.1123C145 39.4634 144.183 42.1159 142.548 44.0695C140.914 46.0232 138.735 47 136.011 47C133.315 47 131.151 46.0517 129.516 44.1551C127.896 42.2585 127.057 39.6916 127 36.4545V33.9305V33.9305ZM130.806 36.1123C130.806 38.4937 131.272 40.369 132.204 41.738C133.151 43.0927 134.419 43.7701 136.011 43.7701C139.366 43.7701 141.093 41.3601 141.194 36.5401V33.9305C141.194 31.5633 140.72 29.6952 139.774 28.3262C138.828 26.943 137.559 26.2514 135.968 26.2514C134.405 26.2514 133.151 26.943 132.204 28.3262C131.272 29.6952 130.806 31.5561 130.806 33.9091V36.1123V36.1123Z" fill="#373E48"/>
<path d="M155.624 36.3652L153.673 38.6855V47H150V14H153.673V33.7441L160.667 23.7538H165.066L157.927 33.4648L166 47H161.725L155.624 36.3652V36.3652Z" fill="#373E48"/>
<path d="M168 34.063C168 30.5283 168.675 27.8348 170.024 25.9826C171.388 24.1304 173.34 23.2043 175.88 23.2043C178.129 23.2043 179.885 24.0951 181.147 25.8766V14H185V46.5758H181.474L181.278 44.1157C180.015 46.0386 178.209 47 175.858 47C173.42 47 171.504 46.081 170.111 44.2429C168.733 42.3907 168.029 39.7821 168 36.4171V34.063V34.063ZM171.853 36.205C171.853 38.7783 172.245 40.6729 173.028 41.8888C173.812 43.0906 175.089 43.6915 176.859 43.6915C178.775 43.6915 180.204 42.7512 181.147 40.8708V29.2911C180.16 27.453 178.738 26.534 176.881 26.534C175.111 26.534 173.834 27.142 173.05 28.3579C172.266 29.5598 171.867 31.4119 171.853 33.9145V36.205Z" fill="#373E48"/>
<path d="M190 33.9305C190 30.565 190.817 27.9055 192.452 25.9518C194.1 23.9839 196.272 23 198.968 23C201.663 23 203.828 23.9554 205.462 25.8663C207.111 27.7772 207.957 30.3797 208 33.6738V36.1123C208 39.4634 207.183 42.1159 205.548 44.0695C203.914 46.0232 201.735 47 199.011 47C196.315 47 194.151 46.0517 192.516 44.1551C190.896 42.2585 190.057 39.6916 190 36.4545V33.9305ZM193.806 36.1123C193.806 38.4937 194.272 40.369 195.204 41.738C196.151 43.0927 197.419 43.7701 199.011 43.7701C202.366 43.7701 204.093 41.3601 204.194 36.5401V33.9305C204.194 31.5633 203.72 29.6952 202.774 28.3262C201.828 26.943 200.559 26.2514 198.968 26.2514C197.405 26.2514 196.151 26.943 195.204 28.3262C194.272 29.6952 193.806 31.5561 193.806 33.9091V36.1123Z" fill="#373E48"/>
<path d="M212 33.9305C212 30.565 212.772 27.9055 214.315 25.9518C215.873 23.9839 217.924 23 220.47 23C223.015 23 225.06 23.9554 226.603 25.8663C228.16 27.7772 228.959 30.3797 229 33.6738V36.1123C229 39.4634 228.228 42.1159 226.685 44.0695C225.141 46.0232 223.083 47 220.51 47C217.965 47 215.92 46.0517 214.376 44.1551C212.846 42.2585 212.054 39.6916 212 36.4545V33.9305ZM215.595 36.1123C215.595 38.4937 216.035 40.369 216.915 41.738C217.809 43.0927 219.007 43.7701 220.51 43.7701C223.679 43.7701 225.31 41.3601 225.405 36.5401V33.9305C225.405 31.5633 224.958 29.6952 224.065 28.3262C223.171 26.943 221.973 26.2514 220.47 26.2514C218.994 26.2514 217.809 26.943 216.915 28.3262C216.035 29.6952 215.595 31.5561 215.595 33.9091V36.1123Z" fill="#373E48"/>
<path d="M86.376 71V60.44H91C92.28 60.44 93.224 60.6907 93.832 61.192C94.44 61.6933 94.744 62.4027 94.744 63.32C94.744 63.8853 94.5733 64.3867 94.232 64.824C93.8907 65.2613 93.3893 65.5387 92.728 65.656V65.672C93.464 65.7787 94.0293 66.056 94.424 66.504C94.8187 66.952 95.016 67.4853 95.016 68.104C95.016 69.0107 94.6853 69.72 94.024 70.232C93.3733 70.744 92.4187 71 91.16 71H86.376ZM88.52 64.872H90.712C91.8747 64.872 92.456 64.4187 92.456 63.512C92.456 62.6053 91.8747 62.152 90.712 62.152H88.52V64.872ZM88.52 69.336H90.968C91.5547 69.336 91.992 69.2187 92.28 68.984C92.5787 68.7387 92.728 68.392 92.728 67.944C92.728 67.5067 92.5787 67.1707 92.28 66.936C91.992 66.6907 91.5547 66.568 90.968 66.568H88.52V69.336ZM105.419 60.44L101.675 67.048V71H99.4665V67.048L95.7225 60.44H98.0745L99.7705 63.592L100.571 65.256L101.387 63.592L103.083 60.44H105.419ZM113.506 60.44V64.776H118.162V60.44H120.37V71H118.162V66.552H113.506V71H111.298V60.44H113.506ZM127.686 60.28C128.731 60.28 129.633 60.4987 130.39 60.936C131.147 61.3733 131.729 61.9973 132.134 62.808C132.55 63.6187 132.758 64.5893 132.758 65.72C132.758 66.8507 132.55 67.8213 132.134 68.632C131.729 69.4427 131.147 70.0667 130.39 70.504C129.633 70.9413 128.731 71.16 127.686 71.16C126.641 71.16 125.734 70.9413 124.966 70.504C124.209 70.0667 123.622 69.4427 123.206 68.632C122.801 67.8213 122.598 66.8507 122.598 65.72C122.598 64.5893 122.801 63.6187 123.206 62.808C123.622 61.9973 124.209 61.3733 124.966 60.936C125.734 60.4987 126.641 60.28 127.686 60.28ZM127.686 62.088C126.79 62.088 126.097 62.4027 125.606 63.032C125.126 63.6507 124.886 64.5467 124.886 65.72C124.886 66.8933 125.126 67.7947 125.606 68.424C126.097 69.0427 126.79 69.352 127.686 69.352C128.571 69.352 129.254 69.0427 129.734 68.424C130.225 67.7947 130.47 66.8933 130.47 65.72C130.47 64.5467 130.225 63.6507 129.734 63.032C129.254 62.4027 128.571 62.088 127.686 62.088ZM139.545 60.28C140.591 60.28 141.492 60.4987 142.249 60.936C143.007 61.3733 143.588 61.9973 143.993 62.808C144.409 63.6187 144.617 64.5893 144.617 65.72C144.617 66.8507 144.409 67.8213 143.993 68.632C143.588 69.4427 143.007 70.0667 142.249 70.504C141.492 70.9413 140.591 71.16 139.545 71.16C138.5 71.16 137.593 70.9413 136.825 70.504C136.068 70.0667 135.481 69.4427 135.065 68.632C134.66 67.8213 134.457 66.8507 134.457 65.72C134.457 64.5893 134.66 63.6187 135.065 62.808C135.481 61.9973 136.068 61.3733 136.825 60.936C137.593 60.4987 138.5 60.28 139.545 60.28ZM139.545 62.088C138.649 62.088 137.956 62.4027 137.465 63.032C136.985 63.6507 136.745 64.5467 136.745 65.72C136.745 66.8933 136.985 67.7947 137.465 68.424C137.956 69.0427 138.649 69.352 139.545 69.352C140.431 69.352 141.113 69.0427 141.593 68.424C142.084 67.7947 142.329 66.8933 142.329 65.72C142.329 64.5467 142.084 63.6507 141.593 63.032C141.113 62.4027 140.431 62.088 139.545 62.088ZM149.053 60.44V65.448L153.389 60.44H155.949L152.157 64.744L156.077 71H153.549L150.557 66.168L149.053 67.88V71H146.845V60.44H149.053ZM161.784 60.44C163.437 60.44 164.717 60.8987 165.624 61.816C166.531 62.7333 166.984 64.0347 166.984 65.72C166.984 67.4053 166.531 68.7067 165.624 69.624C164.717 70.5413 163.437 71 161.784 71H157.704V60.44H161.784ZM161.672 69.24C162.675 69.24 163.427 68.9413 163.928 68.344C164.44 67.736 164.696 66.8613 164.696 65.72C164.696 64.5787 164.44 63.7093 163.928 63.112C163.427 62.504 162.675 62.2 161.672 62.2H159.912V69.24H161.672ZM169.204 71V60.44H177.124V62.216H171.412V64.84H175.908V66.536H171.412V69.224H177.348V71H169.204ZM188.229 68.088C187.909 69.1227 187.349 69.896 186.549 70.408C185.749 70.9093 184.815 71.16 183.749 71.16C182.703 71.16 181.797 70.9413 181.029 70.504C180.271 70.0667 179.685 69.4427 179.269 68.632C178.863 67.8213 178.661 66.8507 178.661 65.72C178.661 64.5893 178.869 63.6187 179.285 62.808C179.701 61.9973 180.287 61.3733 181.045 60.936C181.802 60.4987 182.693 60.28 183.717 60.28C184.794 60.28 185.717 60.5093 186.485 60.968C187.263 61.416 187.797 62.0987 188.085 63.016L186.085 63.864C185.903 63.224 185.626 62.7707 185.253 62.504C184.879 62.2267 184.399 62.088 183.813 62.088C182.938 62.088 182.239 62.4027 181.717 63.032C181.205 63.6507 180.949 64.5467 180.949 65.72C180.949 66.8827 181.194 67.7787 181.685 68.408C182.175 69.0373 182.885 69.352 183.813 69.352C184.389 69.352 184.885 69.1973 185.301 68.888C185.727 68.5787 186.026 68.1093 186.197 67.48L188.229 68.088ZM192.318 60.44V65.448L196.654 60.44H199.214L195.422 64.744L199.342 71H196.814L193.822 66.168L192.318 67.88V71H190.11V60.44H192.318Z" fill="black"/>
</g>
<defs>
<clipPath id="clip0_3314:5024">
<rect width="235" height="89" fill="white"/>
</clipPath>
</defs>
</svg>
